<svg width="249" height="72" viewBox="0 0 249 72" fill="none" xmlns="http://www.w3.org/2000/svg">
<path d="M31.9998 53.1055H34.6518V63.9723H39.0826V66.3009H31.9998V53.1055Z" fill="white"/>
<path d="M44.7427 58.6358C43.6754 58.6358 42.9962 59.2179 42.7375 60.3823H46.5861C46.3921 59.2179 45.7776 58.6358 44.7103 58.6358M49.2705 61.4495C49.2705 61.7083 49.2705 61.967 49.2058 62.2904H42.7051C42.7698 62.9373 43.0285 63.4224 43.4166 63.7781C43.8047 64.1339 44.2899 64.328 44.8397 64.328C45.8423 64.328 46.5538 63.9399 46.9419 63.196H49.1735C49.0118 64.1339 48.559 64.9101 47.7828 65.5246C47.0389 66.1391 46.0363 66.4302 44.775 66.4302C43.5137 66.4302 42.22 65.9774 41.3468 65.0395C40.4735 64.1339 40.0208 62.9373 40.0208 61.4819C40.0208 60.0265 40.4412 58.8298 41.2821 57.9243C42.123 57.0187 43.2873 56.5659 44.8073 56.5659C46.3274 56.5659 47.2977 57.0187 48.0739 57.8919C48.8824 58.7652 49.2705 59.9618 49.2705 61.4819" fill="white"/>
<path d="M54.1216 64.4251C54.7685 64.4251 55.4153 64.134 56.0945 63.5519V62.0641L54.7685 62.2582C53.5718 62.4199 52.9573 62.808 52.9573 63.3902C52.9573 63.9723 53.0543 63.9723 53.2807 64.134C53.5071 64.3281 53.7659 64.4251 54.1216 64.4251ZM53.3778 66.4303C52.4398 66.4303 51.6636 66.1716 51.0815 65.6864C50.4993 65.169 50.2083 64.4898 50.2083 63.5519C50.2083 62.614 50.5964 61.9995 51.3402 61.4496C52.0841 60.9322 53.0543 60.6088 54.154 60.4794L56.0621 60.3177V60.156C56.0621 59.6062 55.9328 59.2181 55.7064 58.9917C55.4476 58.7653 55.0919 58.6359 54.6067 58.6359C53.4424 58.6359 52.8279 59.121 52.7309 60.1236H50.467C50.5317 59.0887 50.9198 58.2155 51.599 57.5363C52.2781 56.8571 53.3131 56.5337 54.6714 56.5337C56.0298 56.5337 56.8707 56.8248 57.5499 57.4393C58.2614 58.0538 58.5848 58.9593 58.5848 60.1883V63.0991C58.5848 63.8753 58.8435 64.2634 59.361 64.2634V66.3009C59.2963 66.3009 59.1993 66.3009 59.0376 66.3009C58.8759 66.3009 58.7465 66.3009 58.6495 66.3009H58.132C58.0997 66.3009 58.0026 66.3009 57.8733 66.3009C57.7439 66.3009 57.6469 66.3009 57.6145 66.3009C57.5822 66.3009 57.4852 66.3009 57.3558 66.2362C57.2264 66.2362 57.1617 66.1716 57.0971 66.1392C57.0324 66.1392 56.9677 66.0745 56.8707 66.0098C56.7736 65.9452 56.709 65.9128 56.6443 65.8481C56.5796 65.7835 56.5149 65.7188 56.4502 65.6218C56.3855 65.5247 56.3209 65.4277 56.2885 65.3307C56.0298 65.6541 55.6093 65.9128 55.0595 66.1069C54.5097 66.3009 53.9276 66.398 53.2807 66.398" fill="white"/>
<path d="M66.9938 56.5015V58.9594C65.7648 58.9594 64.8592 59.1858 64.2771 59.671C63.6949 60.1237 63.4038 60.9646 63.4038 62.1289V66.301H60.5901V56.6308H63.2098L63.3715 57.9568C63.5332 57.5687 63.9536 57.2453 64.5681 56.9542C65.1826 56.6632 65.9912 56.5338 66.9938 56.5338" fill="white"/>
<path d="M73.8502 56.5015C74.9822 56.5015 75.8554 56.8249 76.4699 57.4394C77.0844 58.0539 77.4078 58.9271 77.4078 60.0591V66.3334H74.5941V60.4148C74.5941 59.4446 74.0766 58.9594 73.0093 58.9594C71.9421 58.9594 71.9421 59.1212 71.5216 59.4122C71.1012 59.7033 70.8748 60.0914 70.8748 60.5765V66.3334H68.061V56.6632H70.5837L70.7454 57.8275C71.1012 57.4394 71.554 57.116 72.1038 56.8896C72.6536 56.6632 73.2357 56.5338 73.8179 56.5338" fill="white"/>
<path d="M79.1221 56.6305H81.8711V66.3007H79.1221V56.6305ZM80.4481 55.8866C80.06 55.8866 79.7366 55.7572 79.4778 55.4662C79.2191 55.2074 79.0574 54.8517 79.0574 54.4636C79.0574 54.0755 79.1867 53.7521 79.4778 53.461C79.7689 53.2022 80.06 53.0405 80.4481 53.0405C80.8362 53.0405 81.1596 53.1699 81.4507 53.461C81.7417 53.7521 81.8711 54.0755 81.8711 54.4636C81.8711 54.8517 81.7417 55.1751 81.4507 55.4662C81.1919 55.7249 80.8362 55.8866 80.4481 55.8866Z" fill="white"/>
<path d="M89.6332 56.5015C90.7652 56.5015 91.6384 56.8249 92.2529 57.4394C92.8674 58.0539 93.1908 58.9271 93.1908 60.0591V66.3334H90.377V60.4148C90.377 59.4446 89.8596 58.9594 88.7923 58.9594C87.725 58.9594 87.725 59.1212 87.3046 59.4122C86.8841 59.7033 86.6577 60.0914 86.6577 60.5765V66.3334H83.844V56.6632H86.3667L86.5284 57.8275C86.8841 57.4394 87.3369 57.116 87.8867 56.8896C88.4365 56.6632 89.0187 56.5338 89.6008 56.5338" fill="white"/>
<path d="M100.726 59.9296C100.726 59.5091 100.565 59.1857 100.241 58.927C99.9177 58.7006 99.4973 58.5712 98.9798 58.5712C98.4623 58.5712 98.0742 58.7006 97.7508 58.927C97.4274 59.1534 97.298 59.5091 97.298 59.9296C97.298 60.35 97.4597 60.7058 97.7831 60.9645C98.1066 61.2232 98.4947 61.3203 99.0121 61.3203C99.5296 61.3203 99.95 61.1909 100.273 60.9322C100.597 60.6734 100.759 60.3177 100.759 59.8972M101.211 67.4329C101.211 66.7537 100.403 66.4303 98.8181 66.4303H97.5244C97.3304 66.495 97.1686 66.6243 97.0393 66.8184C96.9099 67.0124 96.8452 67.2388 96.8452 67.4329C96.8452 68.2091 97.4921 68.5648 98.8181 68.5648C100.144 68.5648 100.079 68.4678 100.532 68.2414C100.985 68.0474 101.211 67.7563 101.211 67.4005M99.0121 70.6994C97.7185 70.7317 96.6835 70.5377 95.9397 70.1172C95.1958 69.6645 94.7107 69.1146 94.549 68.4031C94.4519 67.9827 94.4843 67.4652 94.646 66.9154C94.8077 66.3656 95.1311 65.9451 95.6162 65.6864C95.3575 65.6217 95.1311 65.4277 94.9371 65.1366C94.743 64.8455 94.646 64.5221 94.646 64.1987C94.646 63.4548 95.0988 62.8403 95.972 62.4199C95.6809 62.1611 95.4222 61.773 95.1958 61.3203C94.9694 60.8351 94.8724 60.35 94.8724 59.8325C94.8724 58.927 95.2605 58.1508 96.0367 57.4716C96.8129 56.8247 97.7831 56.469 98.9798 56.469C100.176 56.469 99.8854 56.5337 100.403 56.663C100.92 56.7924 101.341 56.9865 101.567 57.1805C101.697 56.6954 102.052 56.3396 102.57 56.1132C103.12 55.8545 103.572 55.7898 103.96 55.9192V57.5039C103.702 57.3746 103.411 57.3746 103.12 57.4716C102.828 57.5686 102.602 57.7303 102.473 58.0537C103.023 58.7329 103.281 59.3797 103.281 59.9942C103.281 61.0615 102.861 61.9024 102.052 62.5816C101.244 63.2608 100.241 63.6165 99.0445 63.6489C98.333 63.6812 97.7185 63.5842 97.2333 63.3255C97.0716 63.3901 96.9099 63.4548 96.8452 63.5842C96.7482 63.6812 96.7482 63.8106 96.7805 63.9076C96.8776 64.1987 97.298 64.3604 98.0742 64.3604H99.9824C101.05 64.4251 101.923 64.6515 102.57 65.1043C103.217 65.557 103.605 66.1392 103.669 66.9154C103.766 68.1444 103.378 69.05 102.537 69.6968C101.664 70.3113 100.5 70.6671 98.9798 70.6994" fill="white"/>
<path d="M114.763 66.3009C114.245 66.3009 113.825 66.3009 113.502 66.2686C113.178 66.2686 112.822 66.1716 112.434 66.0422C112.046 65.9128 111.755 65.7511 111.529 65.5247C111.302 65.2983 111.141 64.9749 110.979 64.5545C110.817 64.134 110.752 63.6166 110.752 63.0021V58.7976H109.103V56.5984H110.752V53.1055H113.307V56.5984H115.927V58.7976H113.307V62.8404C113.307 63.3255 113.437 63.6813 113.663 63.843C113.922 64.037 114.278 64.1017 114.731 64.1017H115.927V66.3009H114.731H114.763Z" fill="white"/>
<path d="M123.301 56.5337C124.433 56.5337 125.306 56.8248 125.921 57.4393C126.535 58.0538 126.859 58.927 126.859 60.059V66.3009H124.077V60.4147C124.077 59.4445 123.527 58.9593 122.46 58.9593C121.393 58.9593 121.393 59.1211 120.972 59.4121C120.552 59.7032 120.326 60.0913 120.326 60.5764V66.3009H117.544V53.1055H120.326V57.7303C120.681 57.3746 121.134 57.0835 121.684 56.8895C122.234 56.6954 122.751 56.5661 123.301 56.5661" fill="white"/>
<path d="M131.839 64.4251C132.486 64.4251 133.133 64.134 133.812 63.5519V62.0641L132.486 62.2582C131.289 62.4199 130.675 62.808 130.675 63.3902C130.675 63.9723 130.772 63.9723 130.998 64.134C131.225 64.3281 131.483 64.4251 131.839 64.4251ZM131.095 66.4303C130.157 66.4303 129.381 66.1716 128.799 65.6864C128.217 65.169 127.926 64.4898 127.926 63.5519C127.926 62.614 128.314 61.9995 129.058 61.4496C129.802 60.9322 130.772 60.6088 131.871 60.4794L133.78 60.3177V60.156C133.78 59.6062 133.65 59.2181 133.424 58.9917C133.165 58.7653 132.809 58.6359 132.324 58.6359C131.16 58.6359 130.545 59.121 130.448 60.1236H128.185C128.249 59.0887 128.637 58.2155 129.316 57.5363C129.996 56.8571 131.031 56.5337 132.389 56.5337C133.747 56.5337 134.588 56.8248 135.267 57.4393C135.979 58.0538 136.302 58.9593 136.302 60.1883V63.0991C136.302 63.8753 136.561 64.2634 137.079 64.2634V66.3009C137.014 66.3009 136.917 66.3009 136.755 66.3009C136.593 66.3009 136.464 66.3009 136.367 66.3009H135.85C135.817 66.3009 135.72 66.3009 135.591 66.3009C135.461 66.3009 135.364 66.3009 135.332 66.3009C135.3 66.3009 135.203 66.3009 135.073 66.2362C134.944 66.2362 134.879 66.1716 134.815 66.1392C134.75 66.1392 134.685 66.0745 134.588 66.0098C134.491 65.9452 134.426 65.9128 134.362 65.8481C134.297 65.7835 134.232 65.7188 134.168 65.6218C134.103 65.5247 134.038 65.4277 134.006 65.3307C133.747 65.6541 133.327 65.9128 132.777 66.1069C132.227 66.3009 131.645 66.398 130.998 66.398" fill="white"/>
<path d="M143.644 66.3009C143.126 66.3009 142.706 66.3009 142.383 66.2686C142.059 66.2686 141.703 66.1716 141.315 66.0422C140.927 65.9128 140.636 65.7511 140.41 65.5247C140.183 65.2983 140.022 64.9749 139.86 64.5545C139.698 64.134 139.634 63.6166 139.634 63.0021V58.7976H137.984V56.5984H139.634V53.1055H142.189V56.5984H144.808V58.7976H142.189V62.8404C142.189 63.3255 142.318 63.6813 142.544 63.843C142.803 64.037 143.159 64.1017 143.612 64.1017H144.808V66.3009H143.612H143.644Z" fill="white"/>
<path d="M150.695 56.6305H153.444V66.3007H150.695V56.6305ZM152.021 55.8866C151.632 55.8866 151.309 55.7572 151.05 55.4662C150.792 55.2074 150.63 54.8517 150.63 54.4636C150.63 54.0755 150.759 53.7521 151.05 53.461C151.341 53.2022 151.632 53.0405 152.021 53.0405C152.409 53.0405 152.732 53.1699 153.023 53.461C153.314 53.7521 153.444 54.0755 153.444 54.4636C153.444 54.8517 153.314 55.1751 153.023 55.4662C152.732 55.7249 152.409 55.8866 152.021 55.8866Z" fill="white"/>
<path d="M161.205 56.5015C162.337 56.5015 163.211 56.8249 163.825 57.4394C164.44 58.0539 164.763 58.9271 164.763 60.0591V66.3334H161.949V60.4148C161.949 59.4446 161.432 58.9594 160.365 58.9594C159.297 58.9594 159.297 59.1212 158.877 59.4122C158.456 59.7033 158.23 60.0914 158.23 60.5765V66.3334H155.416V56.6632H157.939L158.101 57.8275C158.456 57.4394 158.909 57.116 159.459 56.8896C160.009 56.6632 160.591 56.5338 161.173 56.5338" fill="white"/>
<path d="M170.391 66.3977C169.097 66.3977 168.062 66.0743 167.318 65.4274C166.542 64.7806 166.121 64.0044 166.024 63.1312H168.385C168.482 63.5516 168.741 63.875 169.097 64.1014C169.453 64.3278 169.873 64.4248 170.294 64.4248C171.07 64.3925 171.458 64.0691 171.458 63.4869C171.458 62.9048 171.426 63.1959 171.328 63.0988C171.231 62.9695 171.07 62.8724 170.843 62.7754C170.617 62.6784 170.423 62.6137 170.261 62.549C170.099 62.4843 169.841 62.4197 169.485 62.3226C169 62.1933 168.612 62.0639 168.321 61.9669C168.03 61.8698 167.706 61.7081 167.35 61.4817C166.995 61.2553 166.704 60.9966 166.542 60.6732C166.348 60.3498 166.251 59.994 166.251 59.5412C166.251 58.6033 166.607 57.8595 167.35 57.3096C168.094 56.7598 169.065 56.4688 170.261 56.4688C171.458 56.4688 172.072 56.7275 172.816 57.245C173.592 57.7624 174.013 58.5386 174.11 59.5412H171.717C171.555 58.8944 171.07 58.571 170.294 58.5063C169.905 58.5063 169.614 58.5063 169.388 58.668C169.162 58.7974 169.065 58.9914 169.065 59.2178C169.065 59.4442 169.065 59.3795 169.129 59.4765C169.162 59.5412 169.226 59.6383 169.291 59.7029C169.388 59.7676 169.453 59.8323 169.517 59.8646C169.582 59.897 169.711 59.9617 169.873 60.0264C170.035 60.091 170.164 60.1234 170.261 60.1557C170.358 60.1557 170.52 60.2204 170.714 60.2851C170.908 60.3498 171.07 60.3821 171.167 60.4145C171.62 60.5438 171.975 60.7055 172.266 60.8349C172.557 60.9643 172.881 61.126 173.204 61.3524C173.528 61.5788 173.786 61.8698 173.948 62.1933C174.11 62.549 174.207 62.9371 174.207 63.3899C174.207 64.3278 173.851 65.104 173.172 65.6215C172.493 66.1713 171.555 66.43 170.358 66.43" fill="white"/>
<path d="M180.449 63.94C181.096 63.94 181.646 63.7136 182.066 63.2284C182.486 62.7433 182.681 62.1288 182.681 61.4173C182.681 60.7058 182.486 60.0913 182.066 59.6062C181.646 59.121 181.128 58.8623 180.449 58.8623C179.77 58.8623 179.543 58.9917 179.188 59.2827C178.8 59.5738 178.541 59.9296 178.379 60.4147V62.4199C178.541 62.8727 178.832 63.2608 179.188 63.5195C179.576 63.8106 179.996 63.94 180.449 63.94ZM180.999 56.5337C182.292 56.5337 183.36 56.9865 184.201 57.9244C185.041 58.8623 185.462 60.0266 185.462 61.4173C185.462 62.808 185.041 64.0047 184.201 64.9426C183.36 65.8805 182.292 66.3656 180.999 66.3656C179.705 66.3656 179.058 66.0422 178.379 65.363V71.0228H175.598V56.6307H178.185L178.379 57.4716C179.026 56.8248 179.899 56.5337 180.999 56.5337Z" fill="white"/>
<path d="M186.723 56.6305H189.472V66.3007H186.723V56.6305ZM188.049 55.8866C187.661 55.8866 187.338 55.7572 187.079 55.4662C186.82 55.2074 186.659 54.8517 186.659 54.4636C186.659 54.0755 186.788 53.7521 187.079 53.461C187.338 53.2022 187.661 53.0405 188.049 53.0405C188.438 53.0405 188.761 53.1699 189.052 53.461C189.343 53.7521 189.472 54.0755 189.472 54.4636C189.472 54.8517 189.343 55.1751 189.052 55.4662C188.793 55.7249 188.438 55.8866 188.049 55.8866Z" fill="white"/>
<path d="M197.817 56.5015V58.9594C196.588 58.9594 195.682 59.1858 195.1 59.671C194.518 60.1237 194.227 60.9646 194.227 62.1289V66.301H191.413V56.6308H194.033L194.194 57.9568C194.356 57.5687 194.776 57.2453 195.391 56.9542C196.005 56.6632 196.814 56.5338 197.817 56.5338" fill="white"/>
<path d="M203.153 58.6358C202.086 58.6358 201.406 59.2179 201.148 60.3823H204.996C204.802 59.2179 204.188 58.6358 203.121 58.6358M207.648 61.4495C207.648 61.7083 207.648 61.967 207.584 62.2904H201.083C201.148 62.9373 201.406 63.4224 201.795 63.7781C202.183 64.1339 202.668 64.328 203.218 64.328C204.22 64.328 204.932 63.9399 205.32 63.196H207.551C207.39 64.1339 206.937 64.9101 206.161 65.5246C205.417 66.1391 204.414 66.4302 203.153 66.4302C201.892 66.4302 200.598 65.9774 199.725 65.0395C198.851 64.1339 198.399 62.9373 198.399 61.4819C198.399 60.0265 198.819 58.8298 199.66 57.9243C200.501 57.0187 201.665 56.5659 203.185 56.5659C204.705 56.5659 205.676 57.0187 206.452 57.8919C207.26 58.7652 207.648 59.9618 207.648 61.4819" fill="white"/>
<path d="M212.661 66.3977C211.368 66.3977 210.333 66.0743 209.589 65.4274C208.813 64.7806 208.392 64.0044 208.295 63.1312H210.656C210.753 63.5516 210.98 63.875 211.368 64.1014C211.723 64.3278 212.144 64.4248 212.564 64.4248C213.34 64.3925 213.729 64.0691 213.729 63.4869C213.729 62.9048 213.696 63.1959 213.599 63.0988C213.502 62.9695 213.341 62.8724 213.114 62.7754C212.888 62.6784 212.694 62.6137 212.532 62.549C212.37 62.4843 212.112 62.4197 211.756 62.3226C211.271 62.1933 210.883 62.0639 210.591 61.9669C210.3 61.8698 209.977 61.7081 209.621 61.4817C209.265 61.2553 208.974 60.9966 208.813 60.6732C208.619 60.3498 208.522 59.994 208.522 59.5412C208.522 58.6033 208.877 57.8595 209.621 57.3096C210.365 56.7598 211.335 56.4688 212.532 56.4688C213.729 56.4688 214.343 56.7275 215.087 57.245C215.863 57.7624 216.284 58.5386 216.381 59.5412H213.987C213.826 58.8944 213.34 58.571 212.564 58.5063C212.176 58.5063 211.885 58.5063 211.659 58.668C211.432 58.7974 211.335 58.9914 211.335 59.2178C211.335 59.4442 211.335 59.3795 211.4 59.4765C211.465 59.5736 211.497 59.6383 211.562 59.7029C211.659 59.7676 211.723 59.8323 211.788 59.8646C211.853 59.897 211.982 59.9617 212.144 60.0264C212.306 60.091 212.435 60.1234 212.532 60.1557C212.629 60.1557 212.791 60.2204 212.985 60.2851C213.179 60.3498 213.341 60.3821 213.438 60.4145C213.89 60.5438 214.246 60.7055 214.537 60.8349C214.828 60.9643 215.152 61.126 215.475 61.3524C215.798 61.5788 216.057 61.8698 216.219 62.1933C216.381 62.549 216.478 62.9371 216.478 63.3899C216.478 64.3278 216.122 65.104 215.443 65.6215C214.764 66.1713 213.826 66.43 212.629 66.43" fill="white"/>
<path d="M29.5279 10.4141L32.7621 7.17989L35.964 10.4141L39.5539 6.82413L32.7621 0L25.938 6.82413L29.5279 10.4141Z" fill="white"/>
<path d="M33.5707 20.6018C31.2421 20.6018 29.8191 21.8631 29.2693 24.3535H37.5811C37.1607 21.8631 35.8347 20.6018 33.5707 20.6018ZM43.3056 26.6497C43.3056 27.1996 43.2733 27.7817 43.2086 28.4285H29.1722C29.334 29.7869 29.8514 30.8542 30.66 31.6304C31.5009 32.4066 32.5035 32.7947 33.7648 32.7947C35.9317 32.7947 37.4518 31.9861 38.2926 30.3367H43.0792C42.7235 32.3742 41.7209 34.0237 40.1038 35.3174C38.4867 36.611 36.3198 37.2579 33.6354 37.2579C30.951 37.2579 28.1373 36.2553 26.2291 34.2824C24.321 32.3096 23.3831 29.7546 23.3831 26.6497C23.3831 23.5449 24.2886 20.9576 26.0998 18.9847C27.9109 17.0119 30.4336 16.0093 33.6678 16.0093C36.9019 16.0093 39.0042 16.9472 40.7506 18.8554C42.4647 20.7635 43.338 23.3185 43.338 26.5851" fill="white"/>
<path d="M59.0884 16.0415V21.3132C56.4364 21.3132 54.4635 21.7984 53.2022 22.801C51.9409 23.8036 51.294 25.55 51.294 28.105V37.1284H45.2461V16.3002H50.9059L51.2617 19.1463C51.6498 18.3378 52.4907 17.6263 53.849 17.0118C55.175 16.3973 56.9215 16.0738 59.0884 16.0738" fill="white"/>
<path d="M72.672 37.1287C71.5724 37.1287 70.6668 37.1287 69.9553 37.064C69.2438 36.9993 68.4999 36.8699 67.659 36.5789C66.8181 36.3201 66.1713 35.932 65.7185 35.4469C65.2657 34.9618 64.8453 34.2503 64.5219 33.3447C64.1984 32.4391 64.0367 31.3395 64.0367 30.0135V20.9254H60.5115V16.2035H64.0367V8.7002H69.5672V16.2035H75.227V20.9254H69.5672V29.6577C69.5672 30.725 69.8259 31.4365 70.3757 31.8246C70.8932 32.2127 71.6694 32.4068 72.7043 32.4068H75.324V37.1287H72.7043H72.672Z" fill="white"/>
<path d="M78.6229 16.2682H84.5415V37.0963H78.6229V16.2682ZM81.5013 14.7158C80.6928 14.7158 79.9813 14.4247 79.3991 13.8425C78.817 13.2604 78.5259 12.5489 78.5259 11.708C78.5259 10.8671 78.817 10.1556 79.3991 9.57342C79.9813 8.99127 80.6928 8.7002 81.5013 8.7002C82.3099 8.7002 83.0537 8.99127 83.6359 9.57342C84.218 10.1556 84.5091 10.8671 84.5091 11.708C84.5091 12.5489 84.218 13.2604 83.6359 13.8425C83.0537 14.4247 82.3422 14.7158 81.5013 14.7158Z" fill="white"/>
<path d="M97.8341 37.29C94.7939 37.29 92.3683 36.3197 90.5248 34.3469C88.6813 32.374 87.7434 29.819 87.7434 26.6495C87.7434 23.48 88.649 20.925 90.4925 18.9845C92.3359 17.044 94.7616 16.0737 97.8341 16.0737C100.907 16.0737 100.745 16.2678 101.974 16.6559C103.17 17.044 104.141 17.5291 104.885 18.1113C105.628 18.6934 106.243 19.3726 106.76 20.1811C107.278 20.9897 107.634 21.7336 107.828 22.4451C108.022 23.1566 108.183 23.8681 108.248 24.5796H102.976C102.847 23.577 102.362 22.7361 101.521 22.0246C100.648 21.3131 99.6129 20.9573 98.4162 20.9573C97.2196 20.9573 95.7318 21.4748 94.9556 22.5098C94.1471 23.5447 93.759 24.9031 93.759 26.6495C93.759 28.396 94.1471 29.722 94.9556 30.7569C95.7642 31.7919 96.8961 32.3417 98.4162 32.3417C99.9363 32.3417 100.615 31.9536 101.489 31.1774C102.362 30.4012 102.847 29.5279 103.009 28.59H108.28C108.216 29.3662 108.054 30.1101 107.86 30.854C107.666 31.5655 107.31 32.3417 106.793 33.1502C106.275 33.9588 105.661 34.6703 104.917 35.2524C104.173 35.8669 103.203 36.3521 102.006 36.7402C100.81 37.1283 99.4188 37.3223 97.8664 37.3223" fill="white"/>
<path d="M119.826 20.6018C117.498 20.6018 116.075 21.8631 115.525 24.3535H123.837C123.416 21.8631 122.09 20.6018 119.826 20.6018ZM129.561 26.6497C129.561 27.1996 129.529 27.7817 129.464 28.4285H115.428C115.59 29.7869 116.107 30.8542 116.916 31.6304C117.756 32.4066 118.759 32.7947 120.02 32.7947C122.187 32.7947 123.707 31.9861 124.548 30.3367H129.335C128.979 32.3742 127.976 34.0237 126.359 35.3174C124.742 36.611 122.575 37.2579 119.891 37.2579C117.207 37.2579 114.393 36.2553 112.485 34.2824C110.577 32.3096 109.639 29.7546 109.639 26.6497C109.639 23.5449 110.544 20.9576 112.355 18.9847C114.167 17.0119 116.689 16.0093 119.923 16.0093C123.158 16.0093 125.26 16.9472 127.006 18.8554C128.72 20.7635 129.594 23.3185 129.594 26.5851" fill="white"/>
<path d="M154.4 23.4154C154.4 22.5099 154.044 21.7983 153.365 21.2809C152.654 20.7634 151.78 20.537 150.648 20.537C149.516 20.537 148.675 20.7957 147.996 21.3132C147.317 21.8307 146.994 22.5745 146.994 23.5125C146.994 24.4504 147.349 25.1942 148.029 25.7117C148.708 26.2292 149.581 26.5203 150.648 26.5203C151.716 26.5203 152.654 26.2615 153.365 25.7117C154.077 25.1619 154.4 24.418 154.4 23.4478M155.435 39.554C155.435 38.0986 153.721 37.3871 150.26 37.3871H147.479C147.058 37.5165 146.703 37.7752 146.412 38.228C146.12 38.6484 145.991 39.1012 145.991 39.554C145.991 41.2034 147.414 42.012 150.26 42.012C153.106 42.012 152.977 41.7856 153.947 41.3328C154.917 40.88 155.403 40.2979 155.403 39.5217M150.713 46.5722C147.899 46.6692 145.7 46.2488 144.051 45.2785C142.401 44.3083 141.431 43.0793 141.075 41.5592C140.849 40.6213 140.946 39.554 141.302 38.3574C141.69 37.1607 142.369 36.2875 143.371 35.7053C142.789 35.5436 142.304 35.1555 141.884 34.541C141.463 33.9265 141.269 33.2474 141.269 32.5358C141.269 30.9187 142.207 29.6574 144.115 28.7195C143.501 28.1373 142.919 27.3288 142.466 26.3262C141.981 25.3236 141.754 24.2563 141.754 23.092C141.754 21.1515 142.595 19.4697 144.245 18.0467C145.894 16.6236 148.029 15.9121 150.616 15.9121C153.203 15.9121 152.557 16.0415 153.721 16.3326C154.853 16.6236 155.694 17.0117 156.243 17.4645C156.535 16.4619 157.246 15.6857 158.443 15.1359C159.607 14.5861 160.61 14.4567 161.418 14.7478V18.1761C160.868 17.9173 160.254 17.885 159.607 18.079C158.96 18.2731 158.507 18.6612 158.216 19.308C159.381 20.7957 159.963 22.1864 159.963 23.4801C159.963 25.744 159.09 27.6199 157.343 29.0753C155.597 30.5306 153.462 31.3068 150.907 31.4039C149.355 31.4686 148.061 31.2422 146.994 30.7247C146.606 30.8541 146.315 31.0158 146.153 31.2745C145.959 31.5009 145.926 31.7596 146.023 31.986C146.25 32.6005 147.155 32.9239 148.773 32.9239L152.88 32.9886C155.176 33.0533 157.02 33.5384 158.443 34.5087C159.866 35.4789 160.642 36.7726 160.804 38.422C161.03 41.0417 160.222 43.0469 158.346 44.4053C156.502 45.7636 153.947 46.4752 150.713 46.5722Z" fill="white"/>
<path d="M177.718 16.0415V21.3132C175.066 21.3132 173.093 21.7984 171.832 22.801C170.571 23.8036 169.924 25.55 169.924 28.105V37.1284H163.876V16.3002H169.536L169.892 19.1463C170.28 18.3378 171.121 17.6263 172.479 17.0118C173.805 16.3973 175.551 16.0738 177.718 16.0738" fill="white"/>
<path d="M190.073 32.1154C191.496 32.1154 192.66 31.5979 193.566 30.5306C194.471 29.4957 194.924 28.202 194.924 26.6496C194.924 25.0972 194.471 23.8035 193.566 22.7362C192.66 21.669 191.496 21.1515 190.073 21.1515C188.65 21.1515 187.453 21.669 186.58 22.7362C185.674 23.7712 185.254 25.0972 185.254 26.6496C185.254 28.202 185.707 29.528 186.58 30.563C187.485 31.5979 188.65 32.1154 190.073 32.1154ZM197.803 34.2823C195.765 36.3522 193.21 37.3548 190.073 37.3548C186.936 37.3548 184.381 36.3198 182.343 34.2823C180.306 32.2124 179.303 29.6897 179.303 26.6496C179.303 23.6095 180.306 21.0545 182.343 19.0169C184.381 16.947 186.936 15.9121 190.073 15.9121C193.21 15.9121 195.765 16.947 197.803 19.0169C199.84 21.0868 200.843 23.6095 200.843 26.6496C200.843 29.6897 199.84 32.2447 197.803 34.2823Z" fill="white"/>
<path d="M224.161 16.2678V37.096H218.793L218.437 34.4763C217.693 35.3495 216.69 36.061 215.494 36.5462C214.297 37.0313 213.068 37.29 211.807 37.29C209.51 37.29 207.635 36.5461 206.212 35.0261C204.756 33.5384 204.045 31.5978 204.045 29.2369V16.2355H210.06V28.493C210.06 29.5603 210.384 30.4012 210.998 31.048C211.613 31.6949 212.486 31.9859 213.553 31.9859C214.62 31.9859 215.849 31.6625 216.787 30.9833C217.725 30.3365 218.178 29.4956 218.178 28.4607V16.2031H224.161V16.2678Z" fill="white"/>
<path d="M238.23 32.0829C239.653 32.0829 240.817 31.5655 241.69 30.5305C242.596 29.4956 243.049 28.2019 243.049 26.6172C243.049 25.0324 242.596 23.7387 241.69 22.7038C240.785 21.6689 239.621 21.1191 238.23 21.1191C236.839 21.1191 236.322 21.4425 235.513 22.057C234.705 22.6715 234.122 23.48 233.767 24.4503V28.7517C234.122 29.7543 234.705 30.5305 235.513 31.145C236.322 31.7595 237.227 32.0506 238.23 32.0506M239.394 16.0737C242.176 16.0737 244.472 17.0763 246.283 19.0815C248.094 21.0867 249 23.6094 249 26.6172C249 29.625 248.094 32.18 246.283 34.2175C244.472 36.255 242.176 37.29 239.394 37.29C236.613 37.29 235.254 36.5785 233.734 35.1554V47.316H227.783V16.3325H233.346L233.734 18.1436C235.125 16.7852 237.001 16.0737 239.394 16.0737Z" fill="white"/>
<path d="M22.2188 16.2681L13.9393 37.0962H8.24717L0 16.2681H6.43603L11.0933 30.3368L15.7828 16.2681H22.2188Z" fill="white"/>
</svg>
