<svg width="585" height="167" viewBox="0 0 585 167" fill="none" xmlns="http://www.w3.org/2000/svg">
<path d="M0 124.571H6.22094V150.062H16.6145V155.524H0V124.571Z" fill="white"/>
<path d="M29.8913 137.543C27.3877 137.543 25.7945 138.909 25.1876 141.64H34.2156C33.7604 138.909 32.3189 137.543 29.8154 137.543M40.5124 144.144C40.5124 144.751 40.5124 145.357 40.3607 146.116H25.1118C25.2635 147.633 25.8704 148.771 26.7808 149.606C27.6912 150.44 28.8291 150.896 30.1189 150.896C32.4707 150.896 34.1397 149.985 35.0501 148.24H40.2848C39.9055 150.44 38.8433 152.261 37.0226 153.703C35.2777 155.144 32.9259 155.827 29.9671 155.827C27.0084 155.827 23.9738 154.765 21.9254 152.565C19.8771 150.44 18.8149 147.633 18.8149 144.219C18.8149 140.806 19.8012 137.999 21.7737 135.874C23.7462 133.75 26.4773 132.688 30.043 132.688C33.6087 132.688 35.8846 133.75 37.7054 135.798C39.602 137.847 40.5124 140.654 40.5124 144.219" fill="white"/>
<path d="M51.8921 151.123C53.4094 151.123 54.9267 150.441 56.5199 149.075V145.585L53.4094 146.04C50.6024 146.42 49.1609 147.33 49.1609 148.696C49.1609 150.061 49.3885 150.061 49.9196 150.441C50.4507 150.896 51.0576 151.123 51.8921 151.123ZM50.1472 155.827C47.9471 155.827 46.1263 155.22 44.7608 154.082C43.3952 152.868 42.7124 151.275 42.7124 149.075C42.7124 146.875 43.6228 145.434 45.3677 144.144C47.1126 142.93 49.3885 142.171 51.968 141.868L56.444 141.489V141.109C56.444 139.819 56.1405 138.909 55.6095 138.378C55.0026 137.847 54.168 137.544 53.0301 137.544C50.2989 137.544 48.8575 138.682 48.6299 141.033H43.3193C43.4711 138.606 44.3814 136.557 45.9746 134.964C47.5678 133.371 49.9955 132.612 53.1818 132.612C56.3681 132.612 58.3406 133.295 59.9338 134.737C61.6028 136.178 62.3615 138.302 62.3615 141.185V148.013C62.3615 149.834 62.9684 150.744 64.1823 150.744V155.524C64.0305 155.524 63.8029 155.524 63.4236 155.524C63.0443 155.524 62.7408 155.524 62.5132 155.524H61.2994C61.2235 155.524 60.9959 155.524 60.6925 155.524C60.389 155.524 60.1614 155.524 60.0855 155.524C60.0097 155.524 59.7821 155.524 59.4786 155.372C59.1752 155.372 59.0234 155.22 58.8717 155.144C58.72 155.144 58.5682 154.993 58.3406 154.841C58.113 154.689 57.9613 154.613 57.8096 154.461C57.6578 154.31 57.5061 154.158 57.3544 153.93C57.2027 153.703 57.0509 153.475 56.9751 153.248C56.3681 154.006 55.3819 154.613 54.0922 155.068C52.8025 155.524 51.4369 155.751 49.9196 155.751" fill="white"/>
<path d="M82.0865 132.537V138.302C79.2036 138.302 77.0794 138.833 75.7138 139.971C74.3482 141.034 73.6655 143.006 73.6655 145.737V155.524H67.0652V132.84H73.2103L73.5896 135.951C73.9689 135.04 74.9552 134.282 76.3966 133.599C77.838 132.916 79.7347 132.612 82.0865 132.612" fill="white"/>
<path d="M98.17 132.537C100.825 132.537 102.874 133.295 104.315 134.737C105.756 136.178 106.515 138.227 106.515 140.882V155.6H99.9149V141.716C99.9149 139.44 98.701 138.302 96.1975 138.302C93.6939 138.302 93.6939 138.682 92.7077 139.364C91.7214 140.047 91.1904 140.958 91.1904 142.096V155.6H84.5901V132.916H90.5076L90.8869 135.647C91.7214 134.737 92.7835 133.978 94.0732 133.447C95.3629 132.916 96.7285 132.612 98.0941 132.612" fill="white"/>
<path d="M110.536 132.84H116.985V155.524H110.536V132.84ZM113.646 131.095C112.736 131.095 111.977 130.792 111.371 130.109C110.764 129.502 110.384 128.667 110.384 127.757C110.384 126.847 110.688 126.088 111.371 125.405C112.053 124.798 112.736 124.419 113.646 124.419C114.557 124.419 115.316 124.722 115.998 125.405C116.681 126.088 116.985 126.847 116.985 127.757C116.985 128.667 116.681 129.426 115.998 130.109C115.391 130.716 114.557 131.095 113.646 131.095Z" fill="white"/>
<path d="M135.192 132.537C137.847 132.537 139.896 133.295 141.337 134.737C142.779 136.178 143.537 138.227 143.537 140.882V155.6H136.937V141.716C136.937 139.44 135.723 138.302 133.22 138.302C130.716 138.302 130.716 138.682 129.73 139.364C128.744 140.047 128.213 140.958 128.213 142.096V155.6H121.612V132.916H127.53L127.909 135.647C128.744 134.737 129.806 133.978 131.095 133.447C132.385 132.916 133.751 132.612 135.116 132.612" fill="white"/>
<path d="M161.214 140.579C161.214 139.592 160.834 138.834 160.076 138.227C159.317 137.696 158.331 137.392 157.117 137.392C155.903 137.392 154.993 137.696 154.234 138.227C153.475 138.758 153.172 139.592 153.172 140.579C153.172 141.565 153.551 142.399 154.31 143.006C155.069 143.613 155.979 143.841 157.193 143.841C158.407 143.841 159.393 143.537 160.152 142.93C160.91 142.323 161.29 141.489 161.29 140.503M162.352 158.179C162.352 156.586 160.455 155.827 156.738 155.827H153.703C153.248 155.979 152.869 156.283 152.565 156.738C152.262 157.193 152.11 157.724 152.11 158.179C152.11 160 153.627 160.835 156.738 160.835C159.848 160.835 159.696 160.607 160.759 160.076C161.821 159.621 162.352 158.938 162.352 158.103M157.193 165.842C154.158 165.918 151.731 165.462 149.986 164.476C148.241 163.414 147.103 162.124 146.723 160.455C146.496 159.469 146.572 158.255 146.951 156.965C147.33 155.676 148.089 154.689 149.227 154.083C148.62 153.931 148.089 153.476 147.634 152.793C147.179 152.11 146.951 151.351 146.951 150.593C146.951 148.848 148.013 147.406 150.062 146.42C149.379 145.813 148.772 144.903 148.241 143.841C147.71 142.703 147.482 141.565 147.482 140.351C147.482 138.227 148.393 136.406 150.213 134.813C152.034 133.295 154.31 132.461 157.117 132.461C159.924 132.461 159.241 132.613 160.455 132.916C161.669 133.22 162.655 133.675 163.186 134.13C163.49 132.992 164.324 132.157 165.538 131.626C166.828 131.02 167.89 130.868 168.8 131.171V134.889C168.193 134.585 167.511 134.585 166.828 134.813C166.145 135.04 165.614 135.42 165.31 136.178C166.6 137.772 167.207 139.289 167.207 140.73C167.207 143.234 166.221 145.206 164.324 146.799C162.428 148.393 160.076 149.227 157.269 149.303C155.6 149.379 154.158 149.151 153.02 148.544C152.641 148.696 152.262 148.848 152.11 149.151C151.882 149.379 151.882 149.682 151.958 149.91C152.186 150.593 153.172 150.972 154.993 150.972H159.469C161.972 151.124 164.021 151.655 165.538 152.717C167.055 153.779 167.966 155.145 168.117 156.965C168.345 159.848 167.435 161.973 165.462 163.49C163.414 164.931 160.683 165.766 157.117 165.842" fill="white"/>
<path d="M194.139 155.524C192.926 155.524 191.939 155.524 191.181 155.448C190.422 155.448 189.588 155.22 188.677 154.917C187.767 154.613 187.084 154.234 186.553 153.703C186.022 153.172 185.643 152.413 185.263 151.427C184.884 150.441 184.732 149.227 184.732 147.786V137.923H180.863V132.764H184.732V124.571H190.726V132.764H196.871V137.923H190.726V147.406C190.726 148.544 191.029 149.379 191.56 149.758C192.167 150.213 193.001 150.365 194.064 150.365H196.871V155.524H194.064H194.139Z" fill="white"/>
<path d="M214.168 132.613C216.823 132.613 218.871 133.295 220.313 134.737C221.754 136.178 222.513 138.227 222.513 140.882V155.524H215.989V141.716C215.989 139.44 214.699 138.302 212.195 138.302C209.692 138.302 209.692 138.682 208.706 139.365C207.719 140.047 207.188 140.958 207.188 142.096V155.524H200.664V124.571H207.188V135.42C208.023 134.585 209.085 133.902 210.375 133.447C211.664 132.992 212.878 132.688 214.168 132.688" fill="white"/>
<path d="M234.196 151.123C235.713 151.123 237.231 150.441 238.824 149.075V145.585L235.713 146.04C232.906 146.42 231.465 147.33 231.465 148.696C231.465 150.061 231.692 150.061 232.224 150.441C232.755 150.896 233.362 151.123 234.196 151.123ZM232.451 155.827C230.251 155.827 228.43 155.22 227.065 154.082C225.699 152.868 225.016 151.275 225.016 149.075C225.016 146.875 225.927 145.434 227.672 144.144C229.417 142.93 231.693 142.171 234.272 141.868L238.748 141.489V141.109C238.748 139.819 238.444 138.909 237.913 138.378C237.307 137.847 236.472 137.544 235.334 137.544C232.603 137.544 231.161 138.682 230.934 141.033H225.623C225.775 138.606 226.685 136.557 228.279 134.964C229.872 133.371 232.299 132.612 235.486 132.612C238.672 132.612 240.645 133.295 242.238 134.737C243.907 136.178 244.665 138.302 244.665 141.185V148.013C244.665 149.834 245.272 150.744 246.486 150.744V155.524C246.334 155.524 246.107 155.524 245.728 155.524C245.348 155.524 245.045 155.524 244.817 155.524H243.603C243.527 155.524 243.3 155.524 242.996 155.524C242.693 155.524 242.465 155.524 242.389 155.524C242.314 155.524 242.086 155.524 241.783 155.372C241.479 155.372 241.327 155.22 241.176 155.144C241.024 155.144 240.872 154.993 240.645 154.841C240.417 154.689 240.265 154.613 240.114 154.461C239.962 154.31 239.81 154.158 239.658 153.93C239.507 153.703 239.355 153.475 239.279 153.248C238.672 154.006 237.686 154.613 236.396 155.068C235.106 155.524 233.741 155.751 232.224 155.751" fill="white"/>
<path d="M261.887 155.524C260.673 155.524 259.687 155.524 258.928 155.448C258.169 155.448 257.335 155.22 256.424 154.917C255.514 154.613 254.831 154.234 254.3 153.703C253.769 153.172 253.39 152.413 253.011 151.427C252.631 150.441 252.479 149.227 252.479 147.786V137.923H248.61V132.764H252.479V124.571H258.473V132.764H264.618V137.923H258.473V147.406C258.473 148.544 258.776 149.379 259.307 149.758C259.914 150.213 260.749 150.365 261.811 150.365H264.618V155.524H261.811H261.887Z" fill="white"/>
<path d="M278.426 132.84H284.874V155.524H278.426V132.84ZM281.536 131.095C280.626 131.095 279.867 130.792 279.26 130.109C278.653 129.502 278.274 128.667 278.274 127.757C278.274 126.847 278.577 126.088 279.26 125.405C279.943 124.798 280.626 124.419 281.536 124.419C282.447 124.419 283.205 124.722 283.888 125.405C284.571 126.088 284.874 126.847 284.874 127.757C284.874 128.667 284.571 129.426 283.888 130.109C283.205 130.716 282.447 131.095 281.536 131.095Z" fill="white"/>
<path d="M303.082 132.537C305.737 132.537 307.785 133.295 309.227 134.737C310.668 136.178 311.427 138.227 311.427 140.882V155.6H304.826V141.716C304.826 139.44 303.613 138.302 301.109 138.302C298.606 138.302 298.606 138.682 297.619 139.364C296.633 140.047 296.102 140.958 296.102 142.096V155.6H289.502V132.916H295.419L295.799 135.647C296.633 134.737 297.695 133.978 298.985 133.447C300.275 132.916 301.64 132.612 303.006 132.612" fill="white"/>
<path d="M324.628 155.751C321.593 155.751 319.165 154.992 317.42 153.475C315.6 151.958 314.613 150.137 314.386 148.089H319.924C320.152 149.075 320.758 149.834 321.593 150.365C322.427 150.896 323.414 151.123 324.4 151.123C326.221 151.047 327.131 150.289 327.131 148.923C327.131 147.558 327.055 148.24 326.828 148.013C326.6 147.709 326.221 147.482 325.69 147.254C325.159 147.027 324.703 146.875 324.324 146.723C323.945 146.571 323.338 146.42 322.503 146.192C321.365 145.889 320.455 145.585 319.772 145.358C319.089 145.13 318.331 144.751 317.496 144.22C316.662 143.688 315.979 143.082 315.6 142.323C315.144 141.564 314.917 140.73 314.917 139.668C314.917 137.468 315.751 135.723 317.496 134.433C319.241 133.143 321.517 132.46 324.324 132.46C327.131 132.46 328.573 133.067 330.317 134.281C332.138 135.495 333.124 137.316 333.352 139.668H327.738C327.359 138.15 326.221 137.392 324.4 137.24C323.49 137.24 322.807 137.24 322.276 137.619C321.745 137.923 321.517 138.378 321.517 138.909C321.517 139.44 321.517 139.288 321.669 139.516C321.745 139.668 321.896 139.895 322.048 140.047C322.276 140.199 322.427 140.35 322.579 140.426C322.731 140.502 323.034 140.654 323.414 140.806C323.793 140.957 324.096 141.033 324.324 141.109C324.552 141.109 324.931 141.261 325.386 141.413C325.841 141.564 326.221 141.64 326.448 141.716C327.51 142.019 328.345 142.399 329.028 142.702C329.711 143.006 330.469 143.385 331.228 143.916C331.986 144.447 332.593 145.13 332.973 145.889C333.352 146.723 333.58 147.633 333.58 148.696C333.58 150.896 332.745 152.716 331.152 153.93C329.559 155.22 327.359 155.827 324.552 155.827" fill="white"/>
<path d="M348.222 149.985C349.739 149.985 351.029 149.454 352.015 148.316C353.001 147.178 353.456 145.737 353.456 144.068C353.456 142.399 353.001 140.957 352.015 139.819C351.029 138.682 349.815 138.075 348.222 138.075C346.628 138.075 346.097 138.378 345.263 139.061C344.352 139.744 343.746 140.578 343.366 141.716V146.42C343.746 147.482 344.428 148.392 345.263 148.999C346.173 149.682 347.159 149.985 348.222 149.985ZM349.511 132.612C352.546 132.612 355.049 133.674 357.022 135.874C358.994 138.075 359.981 140.806 359.981 144.068C359.981 147.33 358.994 150.137 357.022 152.337C355.049 154.537 352.546 155.675 349.511 155.675C346.477 155.675 344.959 154.917 343.366 153.323V166.6H336.842V132.84H342.911L343.366 134.812C344.884 133.295 346.932 132.612 349.511 132.612Z" fill="white"/>
<path d="M362.939 132.84H369.388V155.524H362.939V132.84ZM366.05 131.095C365.139 131.095 364.381 130.792 363.774 130.109C363.167 129.502 362.788 128.667 362.788 127.757C362.788 126.847 363.091 126.088 363.774 125.405C364.381 124.798 365.139 124.419 366.05 124.419C366.96 124.419 367.719 124.722 368.402 125.405C369.084 126.088 369.388 126.847 369.388 127.757C369.388 128.667 369.084 129.426 368.402 130.109C367.795 130.716 366.96 131.095 366.05 131.095Z" fill="white"/>
<path d="M388.961 132.537V138.302C386.078 138.302 383.954 138.833 382.589 139.971C381.223 141.034 380.54 143.006 380.54 145.737V155.524H373.94V132.84H380.085L380.464 135.951C380.844 135.04 381.83 134.282 383.271 133.599C384.713 132.916 386.609 132.612 388.961 132.612" fill="white"/>
<path d="M401.479 137.543C398.975 137.543 397.382 138.909 396.775 141.64H405.803C405.348 138.909 403.907 137.543 401.403 137.543M412.024 144.144C412.024 144.751 412.024 145.357 411.873 146.116H396.624C396.775 147.633 397.382 148.771 398.293 149.606C399.203 150.44 400.341 150.896 401.631 150.896C403.983 150.896 405.652 149.985 406.562 148.24H411.797C411.417 150.44 410.355 152.261 408.535 153.703C406.79 155.144 404.438 155.827 401.479 155.827C398.52 155.827 395.486 154.765 393.437 152.565C391.389 150.44 390.327 147.633 390.327 144.219C390.327 140.806 391.313 137.999 393.286 135.874C395.258 133.75 397.989 132.688 401.555 132.688C405.121 132.688 407.397 133.75 409.217 135.798C411.114 137.847 412.024 140.654 412.024 144.219" fill="white"/>
<path d="M423.783 155.751C420.748 155.751 418.321 154.992 416.576 153.475C414.755 151.958 413.769 150.137 413.541 148.089H419.079C419.307 149.075 419.838 149.834 420.748 150.365C421.583 150.896 422.569 151.123 423.555 151.123C425.376 151.047 426.287 150.289 426.287 148.923C426.287 147.558 426.211 148.24 425.983 148.013C425.756 147.709 425.376 147.482 424.845 147.254C424.314 147.027 423.859 146.875 423.48 146.723C423.1 146.571 422.493 146.42 421.659 146.192C420.521 145.889 419.61 145.585 418.928 145.358C418.245 145.13 417.486 144.751 416.652 144.22C415.817 143.688 415.134 143.082 414.755 142.323C414.3 141.564 414.072 140.73 414.072 139.668C414.072 137.468 414.907 135.723 416.652 134.433C418.397 133.143 420.673 132.46 423.48 132.46C426.287 132.46 427.728 133.067 429.473 134.281C431.294 135.495 432.28 137.316 432.508 139.668H426.894C426.514 138.15 425.376 137.392 423.555 137.24C422.645 137.24 421.962 137.24 421.431 137.619C420.9 137.923 420.673 138.378 420.673 138.909C420.673 139.44 420.673 139.288 420.824 139.516C420.976 139.744 421.052 139.895 421.204 140.047C421.431 140.199 421.583 140.35 421.735 140.426C421.886 140.502 422.19 140.654 422.569 140.806C422.949 140.957 423.252 141.033 423.48 141.109C423.707 141.109 424.087 141.261 424.542 141.413C424.997 141.564 425.376 141.64 425.604 141.716C426.666 142.019 427.5 142.399 428.183 142.702C428.866 143.006 429.625 143.385 430.383 143.916C431.142 144.447 431.749 145.13 432.128 145.889C432.508 146.723 432.735 147.633 432.735 148.696C432.735 150.896 431.901 152.716 430.307 153.93C428.714 155.22 426.514 155.827 423.707 155.827" fill="white"/>
<path d="M69.265 24.4286L76.8515 16.8421L84.3622 24.4286L92.7832 16.0075L76.8515 0L60.844 16.0075L69.265 24.4286Z" fill="white"/>
<path d="M78.7484 48.3261C73.2861 48.3261 69.948 51.2848 68.6583 57.1264H88.1556C87.1694 51.2848 84.0589 48.3261 78.7484 48.3261ZM101.584 62.5129C101.584 63.8026 101.508 65.1681 101.356 66.6854H68.4307C68.81 69.8718 70.0239 72.3753 71.9205 74.1961C73.893 76.0169 76.2448 76.9272 79.2036 76.9272C84.2865 76.9272 87.8522 75.0306 89.8247 71.1615H101.053C100.218 75.941 97.8664 79.8101 94.0731 82.8447C90.2799 85.8793 85.1969 87.3966 78.9001 87.3966C72.6033 87.3966 66.003 85.0448 61.527 80.4171C57.0509 75.7893 54.8508 69.7959 54.8508 62.5129C54.8508 55.2298 56.9751 49.1606 61.2235 44.5328C65.472 39.905 71.3894 37.5532 78.976 37.5532C86.5625 37.5532 91.4937 39.7533 95.5904 44.2293C99.6113 48.7054 101.66 54.6987 101.66 62.3611" fill="white"/>
<path d="M138.606 37.6294V49.9954C132.385 49.9954 127.757 51.1334 124.799 53.4852C121.84 55.837 120.323 59.9338 120.323 65.9271V87.0935H106.136V38.2363H119.412L120.247 44.9125C121.157 43.0158 123.13 41.3468 126.316 39.9054C129.426 38.4639 133.523 37.7053 138.606 37.7053" fill="white"/>
<path d="M170.469 87.0932C167.89 87.0932 165.766 87.0932 164.096 86.9415C162.427 86.7898 160.683 86.4863 158.71 85.8035C156.738 85.1966 155.22 84.2862 154.158 83.1482C153.096 82.0103 152.11 80.3412 151.351 78.217C150.592 76.0928 150.213 73.5133 150.213 70.4029V49.0848H141.944V38.0084H150.213V20.4077H163.186V38.0084H176.463V49.0848H163.186V69.5683C163.186 72.0719 163.793 73.7409 165.083 74.6513C166.297 75.5617 168.117 76.0169 170.545 76.0169H176.69V87.0932H170.545H170.469Z" fill="white"/>
<path d="M184.429 38.1602H198.312V87.0173H184.429V38.1602ZM191.181 34.5186C189.284 34.5186 187.615 33.8358 186.249 32.4703C184.884 31.1047 184.201 29.4357 184.201 27.4632C184.201 25.4907 184.884 23.8216 186.249 22.4561C187.615 21.0905 189.284 20.4077 191.181 20.4077C193.077 20.4077 194.822 21.0905 196.188 22.4561C197.553 23.8216 198.236 25.4907 198.236 27.4632C198.236 29.4357 197.553 31.1047 196.188 32.4703C194.822 33.8358 193.153 34.5186 191.181 34.5186Z" fill="white"/>
<path d="M229.492 87.4721C222.361 87.4721 216.671 85.1962 212.347 80.5684C208.023 75.9406 205.823 69.9473 205.823 62.5125C205.823 55.0777 207.947 49.0844 212.271 44.5325C216.595 39.9805 222.285 37.7046 229.492 37.7046C236.7 37.7046 236.32 38.1598 239.203 39.0702C242.01 39.9805 244.286 41.1185 246.031 42.4841C247.776 43.8497 249.217 45.4428 250.431 47.3395C251.645 49.2361 252.48 50.981 252.935 52.65C253.39 54.3191 253.769 55.9881 253.921 57.6571H241.555C241.252 55.3053 240.114 53.3328 238.141 51.6638C236.093 49.9947 233.665 49.1602 230.858 49.1602C228.051 49.1602 224.561 50.3741 222.74 52.8018C220.844 55.2295 219.933 58.4158 219.933 62.5125C219.933 66.6092 220.844 69.7197 222.74 72.1474C224.637 74.5751 227.292 75.8648 230.858 75.8648C234.424 75.8648 236.017 74.9544 238.065 73.1336C240.114 71.3129 241.252 69.2645 241.631 67.0644H253.997C253.845 68.8852 253.466 70.6301 253.011 72.375C252.555 74.044 251.721 75.8648 250.507 77.7614C249.293 79.658 247.852 81.3271 246.107 82.6926C244.362 84.1341 242.086 85.2721 239.279 86.1824C236.472 87.0928 233.21 87.548 229.568 87.548" fill="white"/>
<path d="M281.081 48.3261C275.619 48.3261 272.281 51.2848 270.991 57.1264H290.488C289.502 51.2848 286.391 48.3261 281.081 48.3261ZM303.916 62.5129C303.916 63.8026 303.84 65.1681 303.689 66.6854H270.763C271.143 69.8718 272.356 72.3753 274.253 74.1961C276.226 76.0169 278.577 76.9272 281.536 76.9272C286.619 76.9272 290.185 75.0306 292.157 71.1615H303.385C302.551 75.941 300.199 79.8101 296.406 82.8447C292.612 85.8793 287.529 87.3966 281.233 87.3966C274.936 87.3966 268.336 85.0448 263.859 80.4171C259.383 75.7893 257.183 69.7959 257.183 62.5129C257.183 55.2298 259.308 49.1606 263.556 44.5328C267.804 39.905 273.722 37.5532 281.308 37.5532C288.895 37.5532 293.826 39.7533 297.923 44.2293C301.944 48.7054 303.992 54.6987 303.992 62.3611" fill="white"/>
<path d="M362.181 54.9266C362.181 52.8024 361.346 51.1334 359.753 49.9195C358.084 48.7057 356.036 48.1746 353.38 48.1746C350.725 48.1746 348.753 48.7816 347.16 49.9954C345.566 51.2092 344.808 52.9541 344.808 55.1542C344.808 57.3543 345.642 59.0992 347.235 60.3131C348.829 61.5269 350.877 62.2097 353.38 62.2097C355.884 62.2097 358.084 61.6028 359.753 60.3131C361.422 59.0234 362.181 57.2785 362.181 55.0025M364.609 92.7834C364.609 89.3694 360.588 87.7004 352.47 87.7004H345.946C344.959 88.0039 344.125 88.6108 343.442 89.6729C342.759 90.6591 342.456 91.7212 342.456 92.7834C342.456 96.6525 345.794 98.5491 352.47 98.5491C359.146 98.5491 358.843 98.0181 361.119 96.9559C363.395 95.8938 364.533 94.5282 364.533 92.7075M353.532 109.246C346.932 109.474 341.773 108.487 337.904 106.212C334.035 103.936 331.759 101.053 330.924 97.487C330.393 95.2869 330.621 92.7834 331.455 89.9764C332.366 87.1693 333.959 85.121 336.311 83.7554C334.945 83.3761 333.807 82.4657 332.821 81.0243C331.835 79.5828 331.38 77.9897 331.38 76.3206C331.38 72.5274 333.58 69.5686 338.056 67.3685C336.614 66.0029 335.249 64.1063 334.187 61.7545C333.049 59.4027 332.518 56.8991 332.518 54.168C332.518 49.6161 334.49 45.6711 338.359 42.333C342.228 38.9949 347.235 37.3259 353.305 37.3259C359.374 37.3259 357.856 37.6294 360.588 38.3122C363.243 38.9949 365.215 39.9053 366.505 40.9674C367.188 38.6156 368.857 36.7948 371.664 35.5051C374.395 34.2154 376.747 33.912 378.644 34.5948V42.6365C377.354 42.0296 375.912 41.9537 374.395 42.4089C372.878 42.8641 371.816 43.7745 371.133 45.2918C373.864 48.7816 375.23 52.0438 375.23 55.0784C375.23 60.3889 373.181 64.7891 369.085 68.203C364.988 71.617 359.981 73.4377 353.987 73.6653C350.346 73.8171 347.311 73.286 344.808 72.0722C343.897 72.3756 343.215 72.7549 342.835 73.3619C342.38 73.8929 342.304 74.4998 342.532 75.0309C343.063 76.4723 345.187 77.231 348.98 77.231L358.615 77.3827C364.002 77.5345 368.326 78.6724 371.664 80.9484C375.002 83.2243 376.823 86.2589 377.202 90.1281C377.733 96.2732 375.837 100.977 371.436 104.163C367.112 107.349 361.119 109.019 353.532 109.246Z" fill="white"/>
<path d="M416.879 37.6294V49.9954C410.659 49.9954 406.031 51.1334 403.072 53.4852C400.113 55.837 398.596 59.9338 398.596 65.9271V87.0935H384.409V38.2363H397.686L398.52 44.9125C399.431 43.0158 401.403 41.3468 404.589 39.9054C407.7 38.4639 411.797 37.7053 416.879 37.7053" fill="white"/>
<path d="M445.86 75.3341C449.198 75.3341 451.929 74.1203 454.053 71.6167C456.178 69.1891 457.24 66.1545 457.24 62.5129C457.24 58.8714 456.178 55.8368 454.053 53.3332C451.929 50.8297 449.198 49.6158 445.86 49.6158C442.522 49.6158 439.715 50.8297 437.667 53.3332C435.542 55.7609 434.556 58.8714 434.556 62.5129C434.556 66.1545 435.618 69.2649 437.667 71.6926C439.791 74.1203 442.522 75.3341 445.86 75.3341ZM463.992 80.4171C459.212 85.2725 453.219 87.6243 445.86 87.6243C438.501 87.6243 432.508 85.1966 427.728 80.4171C422.949 75.5617 420.597 69.6443 420.597 62.5129C420.597 55.3816 422.949 49.3882 427.728 44.6087C432.508 39.7534 438.501 37.3257 445.86 37.3257C453.219 37.3257 459.212 39.7534 463.992 44.6087C468.771 49.4641 471.123 55.3816 471.123 62.5129C471.123 69.6443 468.771 75.6376 463.992 80.4171Z" fill="white"/>
<path d="M525.822 38.16V87.0172H513.228L512.394 80.8721C510.649 82.9205 508.297 84.5895 505.49 85.7275C502.683 86.8655 499.8 87.4724 496.841 87.4724C491.455 87.4724 487.055 85.7275 483.717 82.1618C480.303 78.672 478.634 74.1201 478.634 68.582V38.0842H492.745V66.8371C492.745 69.3406 493.503 71.3131 494.945 72.8304C496.386 74.3477 498.435 75.0305 500.938 75.0305C503.442 75.0305 506.325 74.2719 508.525 72.6787C510.725 71.1614 511.787 69.1889 511.787 66.7612V38.0083H525.822V38.16Z" fill="white"/>
<path d="M558.823 75.2578C562.161 75.2578 564.893 74.044 566.941 71.6163C569.065 69.1886 570.127 66.154 570.127 62.4366C570.127 58.7192 569.065 55.6846 566.941 53.2569C564.817 50.8293 562.085 49.5396 558.823 49.5396C555.561 49.5396 554.347 50.2982 552.451 51.7396C550.554 53.1811 549.188 55.0777 548.354 57.3537V67.4437C549.188 69.7956 550.554 71.6163 552.451 73.0578C554.347 74.4992 556.471 75.182 558.823 75.182M561.554 37.7046C568.079 37.7046 573.465 40.0564 577.714 44.7601C581.962 49.4637 584.086 55.3812 584.086 62.4366C584.086 69.4921 581.962 75.4854 577.714 80.265C573.465 85.0445 568.079 87.4721 561.554 87.4721C555.03 87.4721 551.844 85.8031 548.278 82.465V110.99H534.319V38.3115H547.368L548.278 42.56C551.54 39.3736 555.94 37.7046 561.554 37.7046Z" fill="white"/>
<path d="M52.1199 38.1602L32.6984 87.0173H19.3461L0.000488281 38.1602H15.0977L26.0222 71.1615L37.0227 38.1602H52.1199Z" fill="white"/>
</svg>
