<svg width="163" height="107" viewBox="0 0 163 107" fill="none" xmlns="http://www.w3.org/2000/svg">
<g opacity="0.91" filter="url(#filter0_d_38_1084)">
<path d="M43.1178 0L35.0103 8.06986L39.2832 12.3229L43.1178 8.54242L46.9525 12.3229L51.2254 8.06986L43.1178 0Z" fill="black"/>
<path d="M23.908 70.3394C23.908 69.2489 23.5063 68.4128 22.6663 67.8312C21.8264 67.2133 20.7673 66.9225 19.416 66.9225C18.0647 66.9225 17.0787 67.2133 16.2752 67.8312C15.4718 68.4492 15.07 69.3216 15.07 70.4121C15.07 71.5027 15.4718 72.4114 16.3117 73.0294C17.1152 73.6473 18.1743 73.9745 19.416 73.9745C20.6577 73.9745 21.8264 73.6474 22.6663 72.993C23.5063 72.3387 23.908 71.4663 23.908 70.3031M25.1497 89.4963C25.1497 87.7878 23.1046 86.9154 18.9778 86.9154H15.6544C15.1431 87.0608 14.7048 87.3879 14.3761 87.8968C14.0475 88.4057 13.8649 88.951 13.8649 89.4963C13.8649 91.4592 15.5813 92.4043 18.9778 92.4043C22.3742 92.4043 22.2281 92.1499 23.3968 91.6046C24.5654 91.0957 25.1497 90.3687 25.1497 89.4599M19.489 97.8206C16.1657 97.9296 13.4997 97.4207 11.5641 96.2938C9.62846 95.167 8.42328 93.6766 8.02155 91.8954C7.76591 90.7685 7.83895 89.5326 8.31372 88.1149C8.75197 86.6972 9.59194 85.6431 10.7971 84.9524C10.1032 84.7707 9.5189 84.2981 9.04413 83.5711C8.56936 82.8077 8.31372 82.0444 8.31372 81.1719C8.31372 79.2454 9.44585 77.755 11.7101 76.6281C10.9432 75.9374 10.2858 74.9923 9.73802 73.7927C9.15369 72.5932 8.86153 71.3209 8.86153 69.9759C8.86153 67.6495 9.84758 65.6502 11.8562 63.9781C13.8283 62.2696 16.3848 61.4335 19.4525 61.4335C22.5203 61.4335 21.7533 61.6153 23.1411 61.9424C24.4924 62.2696 25.5149 62.7421 26.1358 63.2874C26.4645 62.0878 27.341 61.179 28.7288 60.5247C30.1166 59.8704 31.2852 59.725 32.2713 60.0522V64.1235C31.6139 63.8326 30.8835 63.7963 30.1166 64.0144C29.3496 64.2325 28.8018 64.7051 28.4731 65.4684C29.8609 67.2496 30.5548 68.8854 30.5548 70.4485C30.5548 73.1384 29.4957 75.3558 27.4505 77.0643C25.3689 78.8091 22.8124 79.7179 19.7447 79.827C17.9187 79.8997 16.3483 79.6452 15.1066 79.0272C14.6683 79.1727 14.3031 79.3908 14.084 79.6816C13.8649 79.9724 13.8283 80.2632 13.9379 80.5176C14.1935 81.281 15.2892 81.6445 17.2248 81.6445L22.1185 81.7172C24.8576 81.7899 27.0488 82.3715 28.7653 83.5347C30.4452 84.6616 31.3948 86.2247 31.5774 88.1513C31.833 91.2774 30.8835 93.6402 28.6557 95.2397C26.428 96.8391 23.3968 97.7115 19.5621 97.8206" fill="black"/>
<path d="M51.7003 61.5791V67.8314C48.523 67.8314 46.1857 68.413 44.6884 69.6126C43.191 70.8122 42.4241 72.8842 42.4241 75.9013V86.5884H35.2295V61.8699H41.9493L42.351 65.2142C42.7893 64.2327 43.8484 63.3966 45.4188 62.6696C47.0257 61.9426 49.1073 61.5791 51.6638 61.5791" fill="black"/>
<path d="M66.4183 80.6631C68.0982 80.6631 69.486 80.0452 70.5816 78.8092C71.6772 77.5733 72.1885 76.0102 72.1885 74.1927C72.1885 72.3752 71.6407 70.8121 70.5816 69.5762C69.486 68.3039 68.0982 67.6859 66.4183 67.6859C64.7383 67.6859 63.314 68.3039 62.2549 69.5398C61.1958 70.7757 60.648 72.3388 60.648 74.1927C60.648 76.0466 61.1958 77.6097 62.2549 78.8092C63.314 80.0452 64.7018 80.6631 66.4183 80.6631ZM75.6215 83.244C73.2111 85.6795 70.1434 86.9154 66.4183 86.9154C62.6932 86.9154 59.6619 85.6795 57.2151 83.244C54.8047 80.8085 53.563 77.7914 53.563 74.1927C53.563 70.594 54.7682 67.5769 57.2151 65.105C59.6254 62.6695 62.6932 61.4336 66.4183 61.4336C70.1434 61.4336 73.1746 62.6695 75.6215 65.105C78.0318 67.5405 79.2735 70.5576 79.2735 74.1927C79.2735 77.8278 78.0684 80.8085 75.6215 83.244Z" fill="black"/>
<path d="M107.065 61.8701V86.5886H100.674L100.273 83.4988C99.3595 84.553 98.2274 85.3527 96.7665 85.9343C95.3422 86.5159 93.8814 86.8067 92.3475 86.8067C89.6085 86.8067 87.3807 85.9343 85.6643 84.1531C83.9478 82.3719 83.0713 80.0818 83.0713 77.2828V61.8701H90.2293V76.4468C90.2293 77.719 90.5946 78.7005 91.3615 79.4639C92.0919 80.2272 93.1145 80.5907 94.4292 80.5907C95.744 80.5907 97.1683 80.1909 98.2639 79.4275C99.396 78.6278 99.9438 77.6463 99.9438 76.4468V61.8701H107.065Z" fill="black"/>
<path d="M123.865 80.6257C125.545 80.6257 126.933 80.0077 127.992 78.7718C129.051 77.5359 129.599 76.0091 129.599 74.1553C129.599 72.3014 129.051 70.7383 127.992 69.5024C126.933 68.2664 125.545 67.6485 123.865 67.6485C122.185 67.6485 121.564 68.012 120.615 68.739C119.665 69.466 118.971 70.4111 118.533 71.6107V76.7362C118.971 77.8994 119.665 78.8445 120.615 79.5715C121.564 80.2985 122.66 80.662 123.865 80.662M125.253 61.6143C128.576 61.6143 131.279 62.8138 133.434 65.1766C135.588 67.5394 136.684 70.5202 136.684 74.1189C136.684 77.7176 135.588 80.7347 133.434 83.1702C131.279 85.6057 128.54 86.8053 125.253 86.8053C121.966 86.8053 120.286 85.9692 118.533 84.2608V98.692H111.412V61.9051H118.058L118.533 64.0498C120.177 62.414 122.441 61.6143 125.253 61.6143Z" fill="black"/>
<path d="M30.5548 19.3027L20.6942 44.0212H13.9014L4.04077 19.3027H11.7101L17.2978 36.0241L22.8854 19.3027H30.5548Z" fill="black"/>
<path d="M44.0674 24.4649C41.2918 24.4649 39.6119 25.9552 38.9545 28.936H48.8516C48.3768 25.9552 46.7699 24.4649 44.0674 24.4649ZM55.681 31.626C55.681 32.2803 55.6444 32.9709 55.5349 33.7343H38.8084C39.0275 35.3701 39.6119 36.6424 40.5979 37.5511C41.584 38.4599 42.8257 38.9325 44.2865 38.9325C46.8795 38.9325 48.669 37.951 49.655 36.0244H55.3523C54.914 38.4235 53.7454 40.3865 51.8098 41.9496C49.8742 43.5126 47.3177 44.276 44.1039 44.276C40.8901 44.276 37.5302 43.1128 35.3024 40.75C33.0381 38.3872 31.906 35.3701 31.906 31.6987C31.906 28.0272 32.9651 24.9374 35.1563 22.611C37.3111 20.2845 40.3058 19.085 44.1769 19.085C48.0481 19.085 50.5315 20.2118 52.6132 22.4656C54.6584 24.7193 55.7175 27.7728 55.7175 31.6623" fill="black"/>
<path d="M74.4894 19.0117V25.264C71.3121 25.264 68.9748 25.8457 67.4774 27.0452C65.9801 28.2448 65.2131 30.3168 65.2131 33.3339V44.021H58.0186V19.3025H64.7384L65.1401 22.6468C65.5783 21.6653 66.6374 20.8293 68.2078 20.1022C69.8147 19.3752 71.8964 19.0117 74.4529 19.0117" fill="black"/>
<path d="M90.7403 44.095C89.4256 44.095 88.3299 44.095 87.49 44.0223C86.65 43.9496 85.737 43.7679 84.7509 43.477C83.7649 43.1499 82.9979 42.7137 82.4136 42.1321C81.8658 41.5505 81.391 40.7144 80.9893 39.6239C80.5876 38.5333 80.405 37.2247 80.405 35.6616V24.8655H76.2051V19.2311H80.405V10.3252H87.0152V19.2311H93.735V24.8655H87.0152V35.2254C87.0152 36.4977 87.3439 37.3338 87.9647 37.8063C88.5856 38.2789 89.4986 38.497 90.7403 38.497H93.8446V44.1314H90.7403V44.095Z" fill="black"/>
<path d="M97.7894 19.3031H104.838V44.0215H97.7894V19.3031ZM101.222 17.4492C100.236 17.4492 99.4328 17.0857 98.7024 16.395C97.972 15.7043 97.6433 14.8683 97.6433 13.8868C97.6433 12.9053 98.0085 12.0693 98.7024 11.3423C99.3963 10.6152 100.236 10.2881 101.186 10.2881C102.135 10.2881 103.048 10.6516 103.742 11.3423C104.436 12.0329 104.801 12.9053 104.801 13.8868C104.801 14.8683 104.436 15.7043 103.742 16.395C103.048 17.0857 102.172 17.4492 101.186 17.4492" fill="black"/>
<path d="M120.724 44.2397C117.108 44.2397 114.187 43.0764 111.995 40.75C109.804 38.4235 108.708 35.3701 108.708 31.626C108.708 27.8818 109.804 24.8647 111.995 22.5383C114.187 20.2118 117.108 19.085 120.76 19.085C124.412 19.085 124.23 19.3031 125.691 19.7756C127.115 20.2482 128.284 20.8298 129.16 21.5205C130.037 22.2111 130.767 23.0472 131.388 23.9923C132.009 24.9374 132.41 25.8462 132.666 26.6823C132.922 27.5183 133.068 28.3544 133.177 29.2268H126.896C126.75 28.0636 126.165 27.0458 125.143 26.2097C124.12 25.3736 122.879 24.9374 121.418 24.9374C119.957 24.9374 118.24 25.5554 117.291 26.755C116.341 27.9909 115.867 29.6267 115.867 31.6623C115.867 33.698 116.341 35.2974 117.291 36.5333C118.24 37.7692 119.628 38.3872 121.418 38.3872C123.207 38.3872 124.047 37.9146 125.07 37.0059C126.092 36.0971 126.713 35.0793 126.896 33.9161H133.177C133.104 34.8248 132.922 35.7336 132.666 36.5697C132.41 37.4421 132.009 38.3508 131.388 39.296C130.767 40.2411 130.037 41.0771 129.16 41.8042C128.284 42.5312 127.115 43.1128 125.691 43.549C124.266 44.0216 122.623 44.2397 120.76 44.2397" fill="black"/>
<path d="M146.947 24.4649C144.171 24.4649 142.491 25.9552 141.834 28.936H151.731C151.256 25.9552 149.649 24.4649 146.947 24.4649ZM158.56 31.626C158.56 32.2803 158.524 32.9709 158.414 33.7343H141.688C141.907 35.3701 142.491 36.6424 143.477 37.5511C144.463 38.4599 145.705 38.9325 147.166 38.9325C149.759 38.9325 151.548 37.951 152.534 36.0244H158.232C157.793 38.4235 156.625 40.3865 154.689 41.9496C152.754 43.5126 150.197 44.276 146.983 44.276C143.769 44.276 140.41 43.1128 138.182 40.75C135.918 38.3872 134.785 35.3701 134.785 31.6987C134.785 28.0272 135.881 24.9374 138.036 22.611C140.19 20.2845 143.185 19.085 147.056 19.085C150.928 19.085 153.411 20.2118 155.493 22.4656C157.538 24.7193 158.597 27.7728 158.597 31.6623" fill="black"/>
</g>
<defs>
<filter id="filter0_d_38_1084" x="9.67979e-05" y="0" width="162.638" height="106.774" filterUnits="userSpaceOnUse" color-interpolation-filters="sRGB">
<feFlood flood-opacity="0" result="BackgroundImageFix"/>
<feColorMatrix in="SourceAlpha" type="matrix" values="0 0 0 0 0 0 0 0 0 0 0 0 0 0 0 0 0 0 127 0" result="hardAlpha"/>
<feOffset dy="4.04067"/>
<feGaussianBlur stdDeviation="2.02034"/>
<feComposite in2="hardAlpha" operator="out"/>
<feColorMatrix type="matrix" values="0 0 0 0 1 0 0 0 0 1 0 0 0 0 1 0 0 0 0.25 0"/>
<feBlend mode="normal" in2="BackgroundImageFix" result="effect1_dropShadow_38_1084"/>
<feBlend mode="normal" in="SourceGraphic" in2="effect1_dropShadow_38_1084" result="shape"/>
</filter>
</defs>
</svg>
